<svg xmlns="http://www.w3.org/2000/svg" xmlns:osb="http://www.openswatchbook.org/uri/2009/osb" xmlns:svg="http://www.w3.org/2000/svg" id="svg3336" width="550" height="200" version="1.1" viewBox="0 0 550 200"><title id="title4281">KTX</title><defs id="defs3338"><linearGradient id="linearGradient4153" osb:paint="solid"><stop style="stop-color:#00f;stop-opacity:1" id="stop4155" offset="0"/></linearGradient></defs><metadata id="metadata3341"/><g id="layer1" transform="translate(0,-852.3622)"><rect style="fill:#168ed8;fill-opacity:1;stroke:none;stroke-width:0;stroke-miterlimit:4;stroke-dasharray:none" id="rect4187" width="60" height="190" x="220" y="862.362"/><path style="fill:#168ed8;fill-opacity:1;stroke:none;stroke-width:0;stroke-miterlimit:4;stroke-dasharray:none" id="rect4185" d="m 150,852.36212 200,0 50,25.00008 -50,24.99992 -200,0 z"/><path style="fill:#f88909;fill-opacity:1;stroke:none;stroke-width:0;stroke-miterlimit:4;stroke-dasharray:none" id="rect4208-6" d="m 350,852.36211 0,50.00004 150,149.99995 50,10e-5 0,-50 -150,-150.00009 z"/><path style="fill:#168ed8;fill-opacity:1;fill-rule:evenodd;stroke:none;stroke-width:0;stroke-linecap:butt;stroke-linejoin:miter;stroke-miterlimit:4;stroke-dasharray:none;stroke-opacity:1" id="rect3350" d="m 0,852.36216 100,4e-5 80,10 -80,89.99995 100,100.00005 -200,0 10,-50 -10,-50 z"/><path style="fill:#f88909;fill-opacity:1;stroke:none;stroke-width:0;stroke-miterlimit:4;stroke-dasharray:none" id="rect4163" d="m 100,852.36214 100,0 L 0,1052.3622 0,952.36215 Z"/><path style="fill:#168ed8;fill-opacity:1;stroke:none;stroke-width:0;stroke-miterlimit:4;stroke-dasharray:none" id="rect4208" d="m 550,852.36215 0,50 -150,150.00005 -100,0 200,-200.00005 z"/></g></svg>